<svg width="146" height="146" viewBox="0 0 146 146" fill="none" xmlns="http://www.w3.org/2000/svg">
<path d="M0 8C0 3.58173 3.58172 0 8 0H138C142.418 0 146 3.58172 146 8V138C146 142.418 142.418 146 138 146H8C3.58173 146 0 142.418 0 138V8Z" fill="#AB8DDE"/>
<path d="M22.1667 113.667V108.583C22.1667 88.9312 38.0979 73 57.75 73" stroke="#EFE7D3" stroke-width="3" stroke-linecap="round" stroke-linejoin="round"/>
<path d="M92.336 74.5934C95.5985 71.0112 101.235 71.0112 104.497 74.5934C106.146 76.4041 108.516 77.3857 110.962 77.2713C115.802 77.0451 119.788 81.0309 119.562 85.8708C119.447 88.3169 120.429 90.6867 122.24 92.3358C125.822 95.5982 125.822 101.235 122.24 104.497C120.429 106.146 119.447 108.516 119.562 110.962C119.788 115.802 115.802 119.788 110.962 119.562C108.516 119.447 106.146 120.429 104.497 122.239C101.235 125.822 95.5985 125.822 92.336 122.239C90.6869 120.429 88.3171 119.447 85.871 119.562C81.0311 119.788 77.0453 115.802 77.2715 110.962C77.3859 108.516 76.4043 106.146 74.5936 104.497C71.0114 101.235 71.0114 95.5982 74.5936 92.3358C76.4043 90.6867 77.3859 88.3169 77.2715 85.8708C77.0453 81.0309 81.0311 77.0451 85.871 77.2713C88.3171 77.3857 90.6869 76.4041 92.336 74.5934Z" stroke="#EFE7D3" stroke-width="3"/>
<path d="M90.0983 98.4165L95.6442 103.962L106.735 92.8711" stroke="#EFE7D3" stroke-width="3" stroke-linecap="round" stroke-linejoin="round"/>
<path d="M57.75 73.0002C68.9796 73.0002 78.0833 63.8964 78.0833 52.6668C78.0833 41.437 68.9796 32.3335 57.75 32.3335C46.5202 32.3335 37.4167 41.437 37.4167 52.6668C37.4167 63.8964 46.5202 73.0002 57.75 73.0002Z" stroke="#EFE7D3" stroke-width="3" stroke-linecap="round" stroke-linejoin="round"/>
</svg>
