<svg width="146" height="146" viewBox="0 0 146 146" fill="none" xmlns="http://www.w3.org/2000/svg">
<path d="M0 8C0 3.58173 3.58172 0 8 0H138C142.418 0 146 3.58172 146 8V138C146 142.418 142.418 146 138 146H8C3.58173 146 0 142.418 0 138V8Z" fill="#AB8DDE"/>
<path d="M75.3018 21L75.3018 20H75.3018V21ZM80.2334 33.4258L79.2334 33.4258L79.2335 34.4258H80.2334V33.4258ZM103.252 33.4258V34.4258H104.212L104.251 33.4669L103.252 33.4258ZM108.177 27.5391V26.5391H108.177L108.177 27.5391ZM113.108 33.7529L114.108 33.7529V33.7529H113.108ZM113 35.0449L112.014 34.8794L111.893 35.6003L112.543 35.9344L113 35.0449ZM121 48.1426H122V48.1426L121 48.1426ZM120.998 48.2852L119.998 48.2757L119.998 48.2852L119.998 48.2947L120.998 48.2852ZM121 48.4307H122V48.4307L121 48.4307ZM121 104.771H122H121ZM106 119.771V120.771H106L106 119.771ZM101.919 119.771V118.771H100.852L100.921 119.835L101.919 119.771ZM101.931 120.094H102.931V120.094L101.931 120.094ZM87.1094 125L87.1093 126H87.1094V125ZM82.2041 120.094L81.2041 120.094V120.094H82.2041ZM82.2158 119.771L83.2137 119.835L83.2831 118.771H82.2158V119.771ZM55.8926 119.771V118.771H54.8253L54.8947 119.835L55.8926 119.771ZM55.9043 120.094H56.9043V120.094L55.9043 120.094ZM41.083 125L41.0829 126H41.083V125ZM36.1777 120.094L35.1777 120.094V120.094H36.1777ZM36.2627 119.187L37.2456 119.37L37.4124 118.479L36.5416 118.226L36.2627 119.187ZM25.6582 105.054H24.6582V105.054L25.6582 105.054ZM40.375 90.3369V89.3369H40.375L40.375 90.3369ZM78.2598 90.3369V91.3369H79.2598V90.3369H78.2598ZM78.2598 62.8594H79.2598V61.8594H78.2598V62.8594ZM46.8516 62.8594V61.8594H46.1157L45.8968 62.5619L46.8516 62.8594ZM36.1777 70.709L36.1777 71.709H36.1777V70.709ZM25 44.6035L24 44.6035V44.6035H25ZM36.1777 33.4258L36.1778 34.4258L37.1777 34.4257L37.1777 33.4258L36.1777 33.4258ZM42.7529 27.5391V26.5391H42.7529L42.7529 27.5391ZM49.3281 33.4258L48.3281 33.4258L48.3281 34.4258H49.3281V33.4258ZM70.3701 33.4258V34.4258H71.3701L71.3701 33.4258L70.3701 33.4258ZM101.602 80.377V79.377H101.602L101.602 80.377ZM89.1016 92.877H88.1016V92.877L89.1016 92.877ZM101.602 105.377L101.602 106.377H101.602V105.377ZM114.102 92.877L115.102 92.877V92.877H114.102ZM75.3018 21L75.3017 22C75.616 22 76.0187 22.1565 76.4919 22.6608C76.9668 23.1669 77.4404 23.9533 77.8592 25.0084C78.6944 27.1127 79.2332 30.0883 79.2334 33.4258L80.2334 33.4258L81.2334 33.4257C81.2332 29.9006 80.6678 26.6634 79.7181 24.2706C79.2444 23.077 78.6555 22.0438 77.9504 21.2923C77.2437 20.5391 76.3492 20.0001 75.3018 20L75.3018 21ZM80.2334 33.4258V34.4258H103.252V33.4258V32.4258H80.2334V33.4258ZM103.252 33.4258L104.251 33.4669C104.373 30.5062 106.27 28.5391 108.177 28.5391L108.177 27.5391L108.177 26.5391C104.811 26.5391 102.401 29.7859 102.253 33.3847L103.252 33.4258ZM108.177 27.5391V28.5391C110.145 28.5391 112.108 30.6456 112.108 33.7529H113.108H114.108C114.108 29.9967 111.656 26.5391 108.177 26.5391V27.5391ZM113.108 33.7529L112.108 33.7529C112.108 34.1382 112.075 34.5148 112.014 34.8794L113 35.0449L113.986 35.2105C114.065 34.7413 114.108 34.2539 114.108 33.7529L113.108 33.7529ZM113 35.0449L112.543 35.9344C116.973 38.2107 120 42.8238 120 48.1426L121 48.1426L122 48.1426C122 42.0452 118.528 36.7609 113.457 34.1555L113 35.0449ZM121 48.1426H120C120 48.1943 119.999 48.1882 119.998 48.2757L120.998 48.2852L121.998 48.2946C121.998 48.2873 122 48.1859 122 48.1426H121ZM120.998 48.2852L119.998 48.2947C119.999 48.3809 120 48.3789 120 48.4307L121 48.4307L122 48.4307C122 48.3853 121.998 48.2863 121.998 48.2756L120.998 48.2852ZM121 48.4307H120V104.771H121H122V48.4307H121ZM121 104.771H120C120 112.502 113.732 118.77 106 118.771L106 119.771L106 120.771C114.836 120.77 122 113.607 122 104.771H121ZM106 119.771V118.771H101.919V119.771V120.771H106V119.771ZM101.919 119.771L100.921 119.835C100.927 119.929 100.931 120.014 100.931 120.094L101.931 120.094L102.931 120.094C102.931 119.957 102.925 119.826 102.917 119.706L101.919 119.771ZM101.931 120.094H100.931C100.931 122.251 99.1814 124 97.0244 124V125V126C100.286 126 102.931 123.355 102.931 120.094H101.931ZM97.0244 125V124H87.1094V125V126H97.0244V125ZM87.1094 125L87.1095 124C84.9527 124 83.2041 122.251 83.2041 120.094H82.2041H81.2041C81.2041 123.355 83.8477 126 87.1093 126L87.1094 125ZM82.2041 120.094L83.2041 120.094C83.2041 120.014 83.2076 119.929 83.2137 119.835L82.2158 119.771L81.2179 119.706C81.2101 119.826 81.2041 119.957 81.2041 120.094L82.2041 120.094ZM82.2158 119.771V118.771H55.8926V119.771V120.771H82.2158V119.771ZM55.8926 119.771L54.8947 119.835C54.9008 119.929 54.9043 120.014 54.9043 120.094L55.9043 120.094L56.9043 120.094C56.9043 119.957 56.8983 119.826 56.8905 119.706L55.8926 119.771ZM55.9043 120.094H54.9043C54.9043 122.251 53.1551 124 50.998 124V125V126C54.2597 126 56.9043 123.355 56.9043 120.094H55.9043ZM50.998 125V124H41.083V125V126H50.998V125ZM41.083 125L41.0831 124C38.9263 124 37.1777 122.251 37.1777 120.094H36.1777H35.1777C35.1777 123.355 37.8214 126 41.0829 126L41.083 125ZM36.1777 120.094L37.1777 120.094C37.1777 119.848 37.2014 119.607 37.2456 119.37L36.2627 119.187L35.2797 119.003C35.2139 119.354 35.1778 119.719 35.1777 120.094L36.1777 120.094ZM36.2627 119.187L36.5416 118.226C30.8309 116.567 26.6583 111.297 26.6582 105.054L25.6582 105.054L24.6582 105.054C24.6583 112.211 29.442 118.247 35.9837 120.147L36.2627 119.187ZM25.6582 105.054H26.6582C26.6582 97.4781 32.7994 91.337 40.375 91.3369L40.375 90.3369L40.375 89.3369C31.6948 89.337 24.6582 96.3735 24.6582 105.054H25.6582ZM40.375 90.3369V91.3369H78.2598V90.3369V89.3369H40.375V90.3369ZM78.2598 90.3369H79.2598V62.8594H78.2598H77.2598V90.3369H78.2598ZM78.2598 62.8594V61.8594H46.8516V62.8594V63.8594H78.2598V62.8594ZM46.8516 62.8594L45.8968 62.5619C44.6065 66.7038 40.7418 69.709 36.1777 69.709V70.709V71.709C41.6421 71.709 46.2631 68.1105 47.8063 63.1568L46.8516 62.8594ZM36.1777 70.709L36.1778 69.709C30.5568 69.7088 26 65.1514 26 59.5303H25H24C24 66.2559 29.452 71.7088 36.1777 71.709L36.1777 70.709ZM25 59.5303H26V44.6035H25H24V59.5303H25ZM25 44.6035L26 44.6035C26.0002 38.9826 30.5568 34.426 36.1778 34.4258L36.1777 33.4258L36.1777 32.4258C29.4522 32.426 24.0002 37.878 24 44.6035L25 44.6035ZM36.1777 33.4258L37.1777 33.4258C37.1778 30.8281 39.567 28.5391 42.753 28.5391L42.7529 27.5391L42.7529 26.5391C38.6762 26.5392 35.1778 29.5213 35.1777 33.4258L36.1777 33.4258ZM42.7529 27.5391V28.5391C45.9389 28.5391 48.3281 30.8281 48.3281 33.4258L49.3281 33.4258L50.3281 33.4258C50.328 29.5213 46.8298 26.5391 42.7529 26.5391V27.5391ZM49.3281 33.4258V34.4258H70.3701V33.4258V32.4258H49.3281V33.4258ZM70.3701 33.4258L71.3701 33.4258C71.3703 30.0883 71.9091 27.1127 72.7443 25.0083C73.1631 23.9532 73.6367 23.1668 74.1116 22.6607C74.5848 22.1564 74.9875 22 75.3018 22V21V20C74.2544 20 73.3598 20.539 72.6531 21.2922C71.948 22.0437 71.3591 23.0769 70.8854 24.2705C69.9357 26.6633 69.3703 29.9005 69.3701 33.4257L70.3701 33.4258ZM101.602 80.377L101.602 79.377C94.1459 79.3772 88.1016 85.4212 88.1016 92.877H89.1016H90.1016C90.1016 86.5258 95.2504 81.3771 101.602 81.377L101.602 80.377ZM89.1016 92.877L88.1016 92.877C88.1018 100.333 94.146 106.377 101.602 106.377L101.602 105.377L101.602 104.377C95.2506 104.377 90.1017 99.228 90.1016 92.8769L89.1016 92.877ZM101.602 105.377V106.377C109.057 106.377 115.101 100.333 115.102 92.877L114.102 92.877L113.102 92.8769C113.101 99.2281 107.953 104.377 101.602 104.377V105.377ZM114.102 92.877H115.102C115.102 85.4211 109.057 79.377 101.602 79.377V80.377V81.377C107.953 81.377 113.102 86.5257 113.102 92.877H114.102ZM101.883 41V40C96.6361 40 92.3828 44.2533 92.3828 49.5H93.3828H94.3828C94.3828 45.3579 97.7407 42 101.883 42V41ZM93.3828 49.5H92.3828C92.3828 54.7467 96.6361 59 101.883 59V58V57C97.7407 57 94.3828 53.6421 94.3828 49.5H93.3828ZM101.883 58V59C107.13 59 111.383 54.7467 111.383 49.5H110.383H109.383C109.383 53.6421 106.025 57 101.883 57V58ZM110.383 49.5H111.383C111.383 44.2533 107.13 40 101.883 40V41V42C106.025 42 109.383 45.3579 109.383 49.5H110.383Z" fill="#EFE7D3"/>
</svg>
