<svg width="122" height="122" viewBox="0 0 122 122" fill="none" xmlns="http://www.w3.org/2000/svg">
<path d="M10.1667 101.667V96.5833C10.1667 76.9312 26.0979 61 45.75 61" stroke="#EFE7D3" stroke-width="3" stroke-linecap="round" stroke-linejoin="round"/>
<path d="M80.336 62.5934C83.5985 59.0112 89.2349 59.0112 92.4973 62.5934C94.1464 64.4041 96.5162 65.3857 98.9623 65.2713C103.802 65.0451 107.788 69.0309 107.562 73.8708C107.447 76.3169 108.429 78.6867 110.24 80.3358C113.822 83.5982 113.822 89.2346 110.24 92.4971C108.429 94.1462 107.447 96.516 107.562 98.9621C107.788 103.802 103.802 107.788 98.9623 107.562C96.5162 107.447 94.1464 108.429 92.4973 110.239C89.2349 113.822 83.5985 113.822 80.336 110.239C78.6869 108.429 76.3171 107.447 73.871 107.562C69.0311 107.788 65.0453 103.802 65.2715 98.9621C65.3859 96.516 64.4043 94.1462 62.5936 92.4971C59.0114 89.2346 59.0114 83.5982 62.5936 80.3358C64.4043 78.6867 65.3859 76.3169 65.2715 73.8708C65.0453 69.0309 69.0311 65.0451 73.871 65.2713C76.3171 65.3857 78.6869 64.4041 80.336 62.5934Z" stroke="#EFE7D3" stroke-width="3"/>
<path d="M78.0983 86.4165L83.6442 91.9619L94.735 80.8711" stroke="#EFE7D3" stroke-width="3" stroke-linecap="round" stroke-linejoin="round"/>
<path d="M45.75 61.0002C56.9796 61.0002 66.0833 51.8964 66.0833 40.6668C66.0833 29.437 56.9796 20.3335 45.75 20.3335C34.5202 20.3335 25.4167 29.437 25.4167 40.6668C25.4167 51.8964 34.5202 61.0002 45.75 61.0002Z" stroke="#EFE7D3" stroke-width="3" stroke-linecap="round" stroke-linejoin="round"/>
</svg>
