<svg width="122" height="122" viewBox="0 0 122 122" fill="none" xmlns="http://www.w3.org/2000/svg">
<path d="M36.7836 35.5832C39.1984 32.8851 40.6667 29.3223 40.6667 25.4165C40.6667 16.9942 33.839 10.1665 25.4167 10.1665C16.9944 10.1665 10.1667 16.9942 10.1667 25.4165C10.1667 33.8388 16.9944 40.6665 25.4167 40.6665C29.9332 40.6665 33.9912 38.7031 36.7836 35.5832ZM36.7836 35.5832L101.667 91.4998" stroke="#EFE7D3" stroke-width="3" stroke-linecap="round" stroke-linejoin="round"/>
<path d="M36.7836 86.4167C39.1984 89.1149 40.6667 92.6773 40.6667 96.5833C40.6667 105.006 33.839 111.833 25.4167 111.833C16.9944 111.833 10.1667 105.006 10.1667 96.5833C10.1667 88.1608 16.9944 81.3333 25.4167 81.3333C29.9332 81.3333 33.9912 83.297 36.7836 86.4167ZM36.7836 86.4167L101.667 30.5" stroke="#EFE7D3" stroke-width="3" stroke-linecap="round" stroke-linejoin="round"/>
</svg>
