<svg width="122" height="122" viewBox="0 0 122 122" fill="none" xmlns="http://www.w3.org/2000/svg">
<path d="M48.3845 13.2465C54.8456 6.15222 66.0079 6.15222 72.469 13.2465C75.7347 16.8324 80.428 18.7763 85.2723 18.5498C94.8571 18.1018 102.751 25.9954 102.303 35.5803C102.076 40.4245 104.02 45.1178 107.606 48.3835C114.7 54.8446 114.7 66.007 107.606 72.468C104.02 75.7338 102.076 80.427 102.303 85.2713C102.751 94.8562 94.8571 102.75 85.2723 102.302C80.428 102.075 75.7347 104.019 72.469 107.605C66.0079 114.699 54.8456 114.699 48.3845 107.605C45.1188 104.019 40.4255 102.075 35.5812 102.302C25.9964 102.75 18.1028 94.8562 18.5508 85.2713C18.7773 80.427 16.8333 75.7338 13.2475 72.468C6.15319 66.007 6.15319 54.8446 13.2475 48.3835C16.8333 45.1178 18.7773 40.4245 18.5508 35.5803C18.1028 25.9954 25.9964 18.1018 35.5812 18.5498C40.4255 18.7763 45.1188 16.8324 48.3845 13.2465Z" stroke="#EFE7D3" stroke-width="3"/>
<path d="M43.9268 59.9258L54.9274 70.9258L76.9268 48.9258" stroke="#EFE7D3" stroke-width="3" stroke-linecap="round" stroke-linejoin="round"/>
</svg>
