<svg width="36" height="36" viewBox="0 0 36 36" fill="none" xmlns="http://www.w3.org/2000/svg">
<path d="M18 24C21.3137 24 24 21.3137 24 18C24 14.6863 21.3137 12 18 12C14.6863 12 12 14.6863 12 18C12 21.3137 14.6863 24 18 24Z" stroke="#7C58BC" stroke-width="2.25" stroke-linecap="round" stroke-linejoin="round"/>
<path d="M4.5 24V12C4.5 7.85787 7.85787 4.5 12 4.5H24C28.1421 4.5 31.5 7.85787 31.5 12V24C31.5 28.1421 28.1421 31.5 24 31.5H12C7.85787 31.5 4.5 28.1421 4.5 24Z" stroke="#7C58BC" stroke-width="2.25"/>
<path d="M26.25 9.7652L26.265 9.74854" stroke="#7C58BC" stroke-width="2.25" stroke-linecap="round" stroke-linejoin="round"/>
</svg>
