<svg width="20" height="17" viewBox="0 0 20 17" fill="none" xmlns="http://www.w3.org/2000/svg">
<g clip-path="url(#clip0_40_218)">
<path d="M9.98392 5.6888L9.77315 6.72555C8.68209 12.1591 8.18616 12.7587 7.70262 12.946H12.2776C12.3807 12.9161 12.4746 12.8602 12.5504 12.7837C12.5985 12.7351 12.6401 12.6805 12.6744 12.6213L12.8108 12.4089L12.8479 12.3465L12.9719 12.0592L13.0959 11.7594L13.2075 11.4471L13.3067 11.1473L13.3935 10.8351V10.8226C13.5794 10.198 13.7654 9.43609 13.9762 8.49927L14.3605 6.68808C15.3524 1.77914 15.836 0.717407 16.4063 0.467588L16.4559 0.455097H11.8561C11.2858 0.580007 10.7774 1.97899 9.98392 5.6888Z" fill="url(#paint0_linear_40_218)"/>
<path d="M3.55534 0.455246C2.9215 0.626569 2.38043 2.66687 1.46833 8.27379C1.20101 10.0616 0.865817 11.8384 0.463468 13.6004C0.370712 13.9897 0.293415 14.3324 0.200659 14.5971C0.149739 14.7628 0.138217 14.9383 0.167024 15.1093C0.195831 15.2803 0.264159 15.442 0.366488 15.5815C0.468817 15.721 0.602277 15.8343 0.756086 15.9122C0.909894 15.9901 1.07974 16.0305 1.2519 16.03H2.93696C3.75631 16.03 4.49836 15.4849 4.74571 14.6906C5.25369 12.644 5.6715 10.5757 5.99791 8.49183L6.04429 8.22706C7.04915 2.0283 7.54385 0.735592 8.11584 0.455246H3.55534Z" fill="url(#paint1_linear_40_218)"/>
<path d="M6.05463 8.2206L6.00742 8.49923C6.6975 11.618 7.18227 12.8578 7.70712 12.9478C8.19121 12.7552 8.68544 12.1544 9.78306 6.72048L9.99419 5.68922C9.22484 2.04333 9.01843 0.455521 8.12536 0.457545C7.54002 0.742248 7.05858 2.02654 6.05463 8.2206Z" fill="url(#paint2_linear_40_218)"/>
<path d="M16.4058 0.456942C15.8341 0.711688 15.3546 1.78243 14.3625 6.68506L14.2593 7.16622L14.1798 7.54398L14.1174 7.84155L14.0443 8.1961C14.0208 8.28648 14.0021 8.37807 13.9883 8.47046L13.986 8.51481C14.1342 9.45153 14.2746 10.291 14.4175 11.0312L14.4278 11.0841C14.6211 12.2616 14.879 13.4275 15.2003 14.5763C15.4537 15.4375 16.2434 16.0289 17.1367 16.0294L18.5627 16.0242C18.7521 16.0259 18.9391 15.9828 19.1089 15.8982C19.2786 15.8137 19.4262 15.6902 19.5399 15.5376C19.6535 15.385 19.73 15.2077 19.7631 15.0199C19.7962 14.8321 19.7851 14.6391 19.7305 14.4564C19.2146 12.4121 18.8074 10.3415 18.5107 8.25338C17.6248 2.7641 17.5152 0.447984 16.4478 0.448712L16.4058 0.456942Z" fill="url(#paint3_linear_40_218)"/>
<g opacity="0.75">
<path d="M6.69854 8.22336C7.57659 2.81087 8.05504 1.14717 8.55219 0.621138C8.44867 0.530122 8.3348 0.477035 8.20585 0.461378C8.15244 0.45489 8.09767 0.466368 8.05235 0.495594C7.4973 0.853572 7.01452 2.27323 6.04941 8.22336L6.00452 8.49816C6.13783 9.10195 6.2635 9.6346 6.38334 10.1029C6.4763 9.56849 6.56646 9.03356 6.6538 8.49816C6.66863 8.40739 6.68343 8.31591 6.69854 8.22336ZM15.0056 6.68525C15.8768 2.378 16.3548 1.03096 16.8477 0.598399C16.731 0.502955 16.6003 0.456543 16.4504 0.456543C16.4341 0.45654 16.418 0.459883 16.403 0.466368C15.8288 0.716551 15.3467 1.78624 14.3562 6.68553C14.3228 6.85115 14.2897 7.01275 14.2571 7.17086C14.2359 7.27366 14.2151 7.37419 14.1943 7.47381C14.1892 7.49793 14.1843 7.52191 14.1793 7.54571C14.1581 7.64639 14.137 7.74602 14.1164 7.84355C14.0906 7.96457 14.0652 8.0826 14.0399 8.19882C14.0197 8.29164 13.9997 8.38375 13.9799 8.47358C13.9765 8.48872 13.976 8.50439 13.9786 8.51971C14.0645 9.04643 14.1531 9.57271 14.2443 10.0985C14.3645 9.63113 14.4905 9.09908 14.6238 8.49619C14.7446 7.951 14.8714 7.34902 15.0056 6.68525Z" fill="#E6E6E6"/>
</g>
<path fill-rule="evenodd" clip-rule="evenodd" d="M3.38288 12.9867H4.86399C4.84158 13.0897 4.81929 13.1898 4.79712 13.287H3.31616C3.33814 13.1906 3.36031 13.0905 3.38288 12.9868V12.9867ZM4.13022 12.375H4.993C4.9722 12.4773 4.95139 12.5776 4.9309 12.6752H4.06808C4.08845 12.5783 4.10926 12.4778 4.13022 12.375ZM4.25155 11.7632H5.11434C5.09504 11.8634 5.07548 11.9635 5.05567 12.0636H4.19285C4.21217 11.9658 4.23177 11.8657 4.25152 11.7632H4.25155ZM4.36734 11.1514H5.22982C5.21093 11.2534 5.19226 11.3534 5.17372 11.4518H4.31124C4.32963 11.354 4.34833 11.2536 4.36734 11.1514ZM3.86012 10.5396H5.34068C5.32257 10.6413 5.30461 10.7413 5.28666 10.8398H3.80598C3.82393 10.7416 3.84186 10.6418 3.86012 10.5396ZM4.58591 9.92779H5.44808C5.43043 10.0295 5.4131 10.1292 5.39557 10.2282H4.53365C4.5509 10.1298 4.56842 10.0295 4.58591 9.92782V9.92779ZM4.69034 9.31601H5.55223C5.53517 9.41745 5.51811 9.51754 5.50136 9.61641H4.63929C4.65619 9.51766 4.67325 9.41776 4.69031 9.31605L4.69034 9.31601ZM4.7922 8.7042H5.65412C5.63749 8.80551 5.62074 8.90557 5.60427 9.00445H4.74254C4.75886 8.90588 4.77542 8.80579 4.7922 8.7042ZM4.24526 8.26741C4.25468 8.20849 4.26424 8.1506 4.27369 8.09258H5.75387C5.747 8.13612 5.73994 8.17911 5.73279 8.22327C5.7235 8.28023 5.7144 8.33649 5.70511 8.39283H4.22474C4.23146 8.3509 4.23821 8.30976 4.24523 8.26744L4.24526 8.26741ZM4.99269 7.4808H5.85474C5.83827 7.57937 5.82167 7.67958 5.80489 7.78105H4.94304C4.95963 7.67974 4.97622 7.57955 4.99269 7.4808ZM5.09533 6.86899H5.95737C5.94074 6.96728 5.92369 7.06768 5.90666 7.16924H5.04461C5.06143 7.06914 5.07834 6.96906 5.09533 6.86899ZM5.20065 6.25721H6.06282C6.04564 6.35562 6.02827 6.45571 6.01078 6.55746H5.14855C5.1661 6.45571 5.18344 6.35596 5.20065 6.25721ZM4.69065 5.64543H6.17115C6.15365 5.74353 6.1357 5.84381 6.11759 5.94568H4.63709C4.65517 5.84393 4.67282 5.74387 4.69065 5.64543ZM5.4213 5.03363H6.28365C6.26539 5.13144 6.24669 5.232 6.22799 5.33387H5.36582C5.38452 5.232 5.40307 5.13175 5.42133 5.03363H5.4213ZM5.53876 4.42185H6.40108C6.38195 4.51935 6.36235 4.61991 6.34276 4.72209H5.48053C5.50016 4.61975 5.51947 4.51982 5.53873 4.42185H5.53876ZM5.6626 3.81007H6.52495C6.50461 3.90738 6.48409 4.00735 6.46319 4.11031H5.60084C5.62164 4.00782 5.64214 3.90773 5.66263 3.81007H5.6626ZM5.17684 3.19826H6.65765C6.63502 3.29823 6.61288 3.39831 6.59124 3.4985H5.11043C5.13288 3.39542 5.15502 3.29545 5.17687 3.19826H5.17684ZM5.94074 2.5866H6.80325C6.7781 2.68646 6.75366 2.78651 6.72994 2.88672H5.8674C5.89122 2.78654 5.91566 2.68647 5.94074 2.5866ZM6.10591 1.9747H6.96944C6.93995 2.07443 6.91167 2.17452 6.88461 2.27494H6.0217C6.04877 2.17458 6.07684 2.07449 6.10591 1.9747ZM6.307 1.36289H7.17365C7.13569 1.46214 7.09998 1.56225 7.06653 1.66313H6.20211C6.23491 1.5623 6.26988 1.46219 6.307 1.36289ZM5.98294 0.751235H7.48065C7.42334 0.832207 7.3656 0.931082 7.3074 1.05135H5.81836C5.87344 0.933141 5.92817 0.833236 5.98294 0.751235ZM11.5752 12.5707C11.6148 12.511 11.6554 12.4429 11.6972 12.363H12.5582C12.4967 12.4815 12.436 12.5812 12.3756 12.6632H11.5097C11.5312 12.6355 11.553 12.604 11.5752 12.5707H11.5752ZM11.9601 11.7512H12.8211C12.7841 11.8522 12.7447 11.9524 12.7031 12.0516H11.8425C11.8841 11.9524 11.9233 11.8522 11.9601 11.7512ZM12.1634 11.1394H13.0256C12.995 11.2399 12.9631 11.3401 12.93 11.4398H12.0683C12.1012 11.3401 12.1329 11.2399 12.1634 11.1394V11.1394ZM11.7211 10.5276H13.202C13.1754 10.6253 13.1197 10.8223 13.1181 10.8279H11.6373C11.6659 10.728 11.6938 10.6279 11.7211 10.5276ZM12.4989 9.91582H13.3616C13.3366 10.0161 13.311 10.1162 13.2849 10.2162H12.4223C12.4472 10.1196 12.4728 10.0195 12.4989 9.91585V9.91582ZM12.6474 9.30404H13.5099C13.4859 9.40653 13.4619 9.50678 13.4384 9.60444H12.5756C12.5992 9.50706 12.6232 9.40728 12.6474 9.30404H12.6474ZM12.7879 8.69226H13.6502C13.6275 8.79444 13.6046 8.89469 13.5823 8.9925H12.7198C12.7421 8.89497 12.765 8.79491 12.7879 8.69226ZM12.3041 8.0806H13.7845C13.7626 8.18251 13.7409 8.2826 13.7194 8.38085H12.2387C12.2606 8.2808 12.2824 8.18072 12.304 8.0806H12.3041ZM13.0523 7.46883H13.9142C13.8929 7.57057 13.8718 7.67051 13.851 7.76907H12.9891C13.0099 7.67063 13.0309 7.57101 13.0523 7.46883ZM13.1781 6.85705H14.0401C14.0195 6.95864 13.9989 7.05854 13.9786 7.15729H13.1166C13.1369 7.05901 13.1575 6.95876 13.1781 6.85705ZM13.3025 6.24524H14.1645C14.1443 6.34336 14.1238 6.44374 14.1033 6.54548H13.2412C13.2619 6.44374 13.2822 6.34383 13.3025 6.24524ZM12.8112 5.63346H14.2919C14.2713 5.73158 14.2502 5.8318 14.2289 5.9337H12.7485C12.7693 5.83359 12.7902 5.73351 12.8112 5.63346ZM13.5609 5.02168H14.4231C14.4019 5.11962 14.38 5.21987 14.358 5.32192H13.496C13.5179 5.22002 13.5394 5.11993 13.5609 5.02168ZM13.6972 4.40987H14.5596C14.5367 4.50987 14.5141 4.60995 14.492 4.71011H13.6296C13.6524 4.60793 13.675 4.50784 13.6972 4.40987ZM13.8404 3.79809H14.7028C14.6792 3.89531 14.6555 3.99537 14.6314 4.09833H13.7692C13.7931 3.99584 13.8168 3.89575 13.8404 3.79809ZM13.3741 3.18628H14.8549C14.8299 3.28303 14.8045 3.383 14.7787 3.48655H13.2982C13.3238 3.38359 13.3491 3.28335 13.3741 3.18628ZM14.1582 2.57463H15.0204C14.992 2.67449 14.9642 2.77452 14.937 2.87471H14.0748C14.1019 2.77451 14.1297 2.67446 14.1582 2.57463ZM14.3447 1.96269H15.2077C15.1764 2.05689 15.1445 2.15713 15.1122 2.26293H14.2499C14.2804 2.16251 14.312 2.06242 14.3447 1.96269ZM14.5705 1.35091H15.4351C15.3932 1.45003 15.3536 1.55014 15.3164 1.65116H14.4529C14.4897 1.55014 14.5289 1.45003 14.5705 1.35091ZM14.2797 0.739258H15.7745C15.7114 0.819606 15.6478 0.918325 15.583 1.03935H14.0965C14.1577 0.920727 14.2189 0.821072 14.2797 0.739258Z" fill="#CDCDCD"/>
</g>
<defs>
<linearGradient id="paint0_linear_40_218" x1="12.0792" y1="12.946" x2="12.0792" y2="0.455097" gradientUnits="userSpaceOnUse">
<stop stop-color="#E6E6E6"/>
<stop offset="1" stop-color="#FAFAFA"/>
</linearGradient>
<linearGradient id="paint1_linear_40_218" x1="4.12733" y1="16.03" x2="4.12733" y2="0.455246" gradientUnits="userSpaceOnUse">
<stop stop-color="#E6E6E6"/>
<stop offset="1" stop-color="#FAFAFA"/>
</linearGradient>
<linearGradient id="paint2_linear_40_218" x1="7.2261" y1="3.26007" x2="8.3063" y2="8.52724" gradientUnits="userSpaceOnUse">
<stop stop-color="#E6E6E6"/>
<stop offset="1" stop-color="#FAFAFA"/>
</linearGradient>
<linearGradient id="paint3_linear_40_218" x1="15.1768" y1="2.49771" x2="17.2486" y2="13.0663" gradientUnits="userSpaceOnUse">
<stop stop-color="#E6E6E6"/>
<stop offset="1" stop-color="#FAFAFA"/>
</linearGradient>
<clipPath id="clip0_40_218">
<rect width="20" height="16.5" fill="white"/>
</clipPath>
</defs>
</svg>
