<svg width="98" height="106" viewBox="0 0 98 106" fill="none" xmlns="http://www.w3.org/2000/svg">
<path d="M51.3018 1L51.3018 0H51.3018V1ZM56.2334 13.4258L55.2334 13.4258L55.2335 14.4258H56.2334V13.4258ZM79.252 13.4258V14.4258H80.2116L80.2511 13.4669L79.252 13.4258ZM84.1768 7.53906V6.53906H84.1767L84.1768 7.53906ZM89.1084 13.7529L90.1084 13.7529V13.7529H89.1084ZM89 15.0449L88.0138 14.8794L87.8928 15.6003L88.543 15.9344L89 15.0449ZM97 28.1426H98V28.1426L97 28.1426ZM96.998 28.2852L95.9981 28.2757L95.998 28.2852L95.9981 28.2947L96.998 28.2852ZM97 28.4307H98V28.4307L97 28.4307ZM97 84.7705H98H97ZM82 99.7705V100.771H82L82 99.7705ZM77.9189 99.7705V98.7705H76.8517L76.9211 99.8355L77.9189 99.7705ZM77.9307 100.094H78.9307V100.094L77.9307 100.094ZM63.1094 105L63.1093 106H63.1094V105ZM58.2041 100.094L57.2041 100.094V100.094H58.2041ZM58.2158 99.7705L59.2137 99.8355L59.2831 98.7705H58.2158V99.7705ZM31.8926 99.7705V98.7705H30.8253L30.8947 99.8355L31.8926 99.7705ZM31.9043 100.094H32.9043V100.094L31.9043 100.094ZM17.083 105L17.0829 106H17.083V105ZM12.1777 100.094L11.1777 100.094V100.094H12.1777ZM12.2627 99.1865L13.2456 99.3704L13.4124 98.4792L12.5416 98.2262L12.2627 99.1865ZM1.6582 85.0537H0.658203V85.0537L1.6582 85.0537ZM16.375 70.3369V69.3369H16.375L16.375 70.3369ZM54.2598 70.3369V71.3369H55.2598V70.3369H54.2598ZM54.2598 42.8594H55.2598V41.8594H54.2598V42.8594ZM22.8516 42.8594V41.8594H22.1157L21.8968 42.5619L22.8516 42.8594ZM12.1777 50.709L12.1777 51.709H12.1777V50.709ZM1 24.6035L0 24.6035V24.6035H1ZM12.1777 13.4258L12.1778 14.4258L13.1777 14.4257L13.1777 13.4258L12.1777 13.4258ZM18.7529 7.53906V6.53906H18.7529L18.7529 7.53906ZM25.3281 13.4258L24.3281 13.4258L24.3281 14.4258H25.3281V13.4258ZM46.3701 13.4258V14.4258H47.3701L47.3701 13.4258L46.3701 13.4258ZM77.6016 60.377V59.377H77.6015L77.6016 60.377ZM65.1016 72.877H64.1016V72.877L65.1016 72.877ZM77.6016 85.377L77.6015 86.377H77.6016V85.377ZM90.1016 72.877L91.1016 72.877V72.877H90.1016ZM51.3018 1L51.3017 2C51.616 2.00002 52.0187 2.15646 52.4919 2.66078C52.9668 3.16687 53.4404 3.95328 53.8592 5.00836C54.6944 7.11275 55.2332 10.0883 55.2334 13.4258L56.2334 13.4258L57.2334 13.4257C57.2332 9.90058 56.6678 6.66336 55.7181 4.27056C55.2444 3.07705 54.6555 2.04377 53.9504 1.2923C53.2437 0.539052 52.3492 6.29425e-05 51.3018 0L51.3018 1ZM56.2334 13.4258V14.4258H79.252V13.4258V12.4258H56.2334V13.4258ZM79.252 13.4258L80.2511 13.4669C80.373 10.5062 82.2698 8.53909 84.1768 8.53906L84.1768 7.53906L84.1767 6.53906C80.8108 6.53912 78.4009 9.78592 78.2528 13.3847L79.252 13.4258ZM84.1768 7.53906V8.53906C86.1449 8.53906 88.1084 10.6456 88.1084 13.7529H89.1084H90.1084C90.1084 9.99669 87.6558 6.53906 84.1768 6.53906V7.53906ZM89.1084 13.7529L88.1084 13.7529C88.1084 14.1382 88.075 14.5148 88.0138 14.8794L89 15.0449L89.9862 15.2105C90.065 14.7413 90.1084 14.2539 90.1084 13.7529L89.1084 13.7529ZM89 15.0449L88.543 15.9344C92.9729 18.2107 95.9999 22.8238 96 28.1426L97 28.1426L98 28.1426C97.9999 22.0452 94.5275 16.7609 89.457 14.1555L89 15.0449ZM97 28.1426H96C96 28.1943 95.9989 28.1882 95.9981 28.2757L96.998 28.2852L97.998 28.2946C97.9981 28.2873 98 28.1859 98 28.1426H97ZM96.998 28.2852L95.9981 28.2947C95.9989 28.3809 96 28.3789 96 28.4307L97 28.4307L98 28.4307C98 28.3853 97.9981 28.2863 97.998 28.2756L96.998 28.2852ZM97 28.4307H96V84.7705H97H98V28.4307H97ZM97 84.7705H96C96 92.5023 89.7318 98.7703 82 98.7705L82 99.7705L82 100.771C90.8363 100.77 98 93.6069 98 84.7705H97ZM82 99.7705V98.7705H77.9189V99.7705V100.771H82V99.7705ZM77.9189 99.7705L76.9211 99.8355C76.9271 99.9289 76.9307 100.014 76.9307 100.094L77.9307 100.094L78.9307 100.094C78.9307 99.9565 78.9247 99.8258 78.9168 99.7055L77.9189 99.7705ZM77.9307 100.094H76.9307C76.9307 102.251 75.1814 104 73.0244 104V105V106C76.286 106 78.9307 103.355 78.9307 100.094H77.9307ZM73.0244 105V104H63.1094V105V106H73.0244V105ZM63.1094 105L63.1095 104C60.9527 104 59.2041 102.251 59.2041 100.094H58.2041H57.2041C57.2041 103.355 59.8477 106 63.1093 106L63.1094 105ZM58.2041 100.094L59.2041 100.094C59.2041 100.014 59.2076 99.9289 59.2137 99.8355L58.2158 99.7705L57.2179 99.7055C57.2101 99.8258 57.2041 99.9565 57.2041 100.094L58.2041 100.094ZM58.2158 99.7705V98.7705H31.8926V99.7705V100.771H58.2158V99.7705ZM31.8926 99.7705L30.8947 99.8355C30.9008 99.9289 30.9043 100.014 30.9043 100.094L31.9043 100.094L32.9043 100.094C32.9043 99.9565 32.8983 99.8258 32.8905 99.7055L31.8926 99.7705ZM31.9043 100.094H30.9043C30.9043 102.251 29.1551 104 26.998 104V105V106C30.2597 106 32.9043 103.355 32.9043 100.094H31.9043ZM26.998 105V104H17.083V105V106H26.998V105ZM17.083 105L17.0831 104C14.9263 104 13.1777 102.251 13.1777 100.094H12.1777H11.1777C11.1777 103.355 13.8214 106 17.0829 106L17.083 105ZM12.1777 100.094L13.1777 100.094C13.1777 99.8483 13.2014 99.6067 13.2456 99.3704L12.2627 99.1865L11.2797 99.0026C11.2139 99.3545 11.1778 99.7192 11.1777 100.094L12.1777 100.094ZM12.2627 99.1865L12.5416 98.2262C6.83086 96.5673 2.65826 91.2971 2.6582 85.0537L1.6582 85.0537L0.658203 85.0537C0.658271 92.211 5.44199 98.2465 11.9837 100.147L12.2627 99.1865ZM1.6582 85.0537H2.6582C2.6582 77.4781 8.7994 71.337 16.375 71.3369L16.375 70.3369L16.375 69.3369C7.69485 69.337 0.658203 76.3735 0.658203 85.0537H1.6582ZM16.375 70.3369V71.3369H54.2598V70.3369V69.3369H16.375V70.3369ZM54.2598 70.3369H55.2598V42.8594H54.2598H53.2598V70.3369H54.2598ZM54.2598 42.8594V41.8594H22.8516V42.8594V43.8594H54.2598V42.8594ZM22.8516 42.8594L21.8968 42.5619C20.6065 46.7038 16.7418 49.709 12.1777 49.709V50.709V51.709C17.6421 51.709 22.2631 48.1105 23.8063 43.1568L22.8516 42.8594ZM12.1777 50.709L12.1778 49.709C6.55678 49.7088 2 45.1514 2 39.5303H1H0C0 46.2559 5.45204 51.7088 12.1777 51.709L12.1777 50.709ZM1 39.5303H2V24.6035H1H0V39.5303H1ZM1 24.6035L2 24.6035C2.00019 18.9826 6.55683 14.426 12.1778 14.4258L12.1777 13.4258L12.1777 12.4258C5.45224 12.426 0.000226915 17.878 0 24.6035L1 24.6035ZM12.1777 13.4258L13.1777 13.4258C13.1778 10.8281 15.567 8.53913 18.753 8.53906L18.7529 7.53906L18.7529 6.53906C14.6762 6.53915 11.1778 9.52128 11.1777 13.4258L12.1777 13.4258ZM18.7529 7.53906V8.53906C21.9389 8.53906 24.3281 10.8281 24.3281 13.4258L25.3281 13.4258L26.3281 13.4258C26.328 9.52125 22.8298 6.53906 18.7529 6.53906V7.53906ZM25.3281 13.4258V14.4258H46.3701V13.4258V12.4258H25.3281V13.4258ZM46.3701 13.4258L47.3701 13.4258C47.3703 10.0883 47.9091 7.11265 48.7443 5.00826C49.1631 3.95317 49.6367 3.16677 50.1116 2.6607C50.5848 2.15642 50.9875 2 51.3018 2V1V0C50.2544 0 49.3598 0.538963 48.6531 1.29221C47.948 2.04367 47.3591 3.07695 46.8854 4.27047C45.9357 6.66328 45.3703 9.90053 45.3701 13.4257L46.3701 13.4258ZM77.6016 60.377L77.6015 59.377C70.1459 59.3772 64.1016 65.4212 64.1016 72.877H65.1016H66.1016C66.1016 66.5258 71.2504 61.3771 77.6016 61.377L77.6016 60.377ZM65.1016 72.877L64.1016 72.877C64.1018 80.3325 70.146 86.3767 77.6015 86.377L77.6016 85.377L77.6016 84.377C71.2506 84.3768 66.1017 79.228 66.1016 72.8769L65.1016 72.877ZM77.6016 85.377V86.377C85.0573 86.377 91.1014 80.3326 91.1016 72.877L90.1016 72.877L89.1016 72.8769C89.1014 79.2281 83.9527 84.377 77.6016 84.377V85.377ZM90.1016 72.877H91.1016C91.1016 65.4211 85.0574 59.377 77.6016 59.377V60.377V61.377C83.9528 61.377 89.1016 66.5257 89.1016 72.877H90.1016ZM77.8828 21V20C72.6361 20 68.3828 24.2533 68.3828 29.5H69.3828H70.3828C70.3828 25.3579 73.7407 22 77.8828 22V21ZM69.3828 29.5H68.3828C68.3828 34.7467 72.6361 39 77.8828 39V38V37C73.7407 37 70.3828 33.6421 70.3828 29.5H69.3828ZM77.8828 38V39C83.1295 39 87.3828 34.7467 87.3828 29.5H86.3828H85.3828C85.3828 33.6421 82.0249 37 77.8828 37V38ZM86.3828 29.5H87.3828C87.3828 24.2533 83.1295 20 77.8828 20V21V22C82.0249 22 85.3828 25.3579 85.3828 29.5H86.3828Z" fill="#EFE7D3"/>
</svg>
