<svg width="146" height="159" viewBox="0 0 146 159" fill="none" xmlns="http://www.w3.org/2000/svg">
<rect width="146" height="146" rx="8" fill="#AB8DDE"/>
<g filter="url(#filter0_dii_77_154)">
<mask id="path-2-inside-1_77_154" fill="white">
<path d="M72.3401 8.04102C73.5723 7.6322 73.9836 10.3715 73.9836 12.7422C73.9836 14.1715 73.7804 15.4367 73.4719 16.2168C77.5685 16.2078 78.6676 16.1656 77.6809 19.8975C77.8009 20.9727 77.7913 21.768 77.6829 22.3525C102.935 23.3041 84.5178 40.6774 84.5178 60.7744C99.8155 101.668 83.8396 99.938 75.9504 99.2725V138H72.6643V99.2549C46.1559 103.209 58.2484 70.7463 62.7473 60.7744C62.7473 40.6078 41.9767 24.9938 68.4563 22.6123C68.1586 22.0525 68.0555 21.1976 68.2336 19.8975C67.691 16.1179 69.7434 16.1405 72.0227 16.2002C71.718 15.4187 71.5188 14.1612 71.5188 12.7422C70.4921 8.65468 71.6595 8.04118 72.3401 8.04102Z"/>
</mask>
<path d="M72.3401 8.04102L72.3406 10.041L72.6634 10.0409L72.9699 9.93926L72.3401 8.04102ZM73.9836 12.7422L75.9836 12.7422V12.7422H73.9836ZM73.4719 16.2168L71.612 15.4814L70.528 18.2233L73.4763 18.2168L73.4719 16.2168ZM77.6809 19.8975L75.7473 19.3863L75.6518 19.7477L75.6932 20.1193L77.6809 19.8975ZM77.6829 22.3525L75.7164 21.9877L75.2941 24.2639L77.6076 24.3511L77.6829 22.3525ZM84.5178 60.7744H82.5178V61.1363L82.6446 61.4752L84.5178 60.7744ZM75.9504 99.2725L76.1186 97.2795L73.9504 97.0966V99.2725H75.9504ZM75.9504 138V140H77.9504V138H75.9504ZM72.6643 138H70.6643V140H72.6643V138ZM72.6643 99.2549H74.6643V96.9344L72.3692 97.2768L72.6643 99.2549ZM62.7473 60.7744L64.5704 61.5969L64.7473 61.2047V60.7744H62.7473ZM68.4563 22.6123L68.6354 24.6043L71.6372 24.3343L70.2221 21.6733L68.4563 22.6123ZM68.2336 19.8975L70.2151 20.169L70.2532 19.891L70.2133 19.6132L68.2336 19.8975ZM72.0227 16.2002L71.9704 18.1995L74.9795 18.2783L73.8861 15.4737L72.0227 16.2002ZM71.5188 12.7422L73.5188 12.7422L73.5188 12.4948L73.4585 12.2549L71.5188 12.7422ZM72.3401 8.04102L72.9699 9.93926C72.7728 10.0047 72.4826 10.0358 72.1674 9.93719C71.8719 9.84477 71.698 9.6834 71.6274 9.60458C71.5282 9.49394 71.5942 9.51266 71.6961 9.88172C71.8827 10.5574 71.9836 11.627 71.9836 12.7422H73.9836H75.9836C75.9836 11.4867 75.8789 10.0014 75.5518 8.81687C75.3968 8.25587 75.1289 7.51825 74.6061 6.93488C74.3236 6.6197 73.9154 6.29287 73.3616 6.11963C72.788 5.94019 72.2155 5.97516 71.7103 6.14277L72.3401 8.04102ZM73.9836 12.7422L71.9836 12.7422C71.9836 14.0349 71.7933 15.0228 71.612 15.4814L73.4719 16.2168L75.3318 16.9522C75.7674 15.8505 75.9836 14.3081 75.9836 12.7422L73.9836 12.7422ZM73.4719 16.2168L73.4763 18.2168C74.5383 18.2145 75.2754 18.212 75.8371 18.257C76.4485 18.3059 76.4811 18.3926 76.3519 18.304C76.246 18.2314 76.1376 18.1145 76.0678 17.9724C76.0073 17.8491 76.0148 17.7858 76.0185 17.8552C76.0288 18.045 75.9851 18.4869 75.7473 19.3863L77.6809 19.8975L79.6145 20.4087C79.87 19.4421 80.0589 18.4898 80.0126 17.6382C79.9601 16.6708 79.5858 15.6712 78.6134 15.0047C77.8206 14.4612 76.872 14.327 76.156 14.2697C75.3903 14.2084 74.4539 14.2146 73.4675 14.2168L73.4719 16.2168ZM77.6809 19.8975L75.6932 20.1193C75.8027 21.0998 75.7743 21.676 75.7164 21.9877L77.6829 22.3525L79.6493 22.7174C79.8084 21.86 79.7991 20.8455 79.6686 19.6757L77.6809 19.8975ZM77.6829 22.3525L77.6076 24.3511C83.8325 24.5857 86.6599 25.838 87.9016 27.2513C89.0617 28.5718 89.3119 30.6038 88.6116 33.9774C87.9092 37.3612 86.4746 41.1896 85.0842 45.8552C83.7342 50.3855 82.5178 55.4594 82.5178 60.7744H84.5178H86.5178C86.5178 56.0409 87.6036 51.4068 88.9176 46.9976C90.1913 42.7236 91.7828 38.3811 92.5281 34.7904C93.2756 31.1897 93.3953 27.4439 90.9065 24.6112C88.4993 21.8713 84.1592 20.5952 77.7582 20.354L77.6829 22.3525ZM84.5178 60.7744L82.6446 61.4752C86.4385 71.617 88.2444 78.9919 88.7512 84.3245C89.26 89.6766 88.4394 92.7393 87.2657 94.4976C86.136 96.1901 84.4657 96.9879 82.4491 97.3142C80.3687 97.6508 78.1477 97.4507 76.1186 97.2795L75.9504 99.2725L75.7823 101.265C77.6978 101.427 80.4321 101.693 83.088 101.263C85.8076 100.823 88.6545 99.6219 90.5926 96.7184C92.4868 93.8807 93.285 89.75 92.7333 83.946C92.1797 78.1224 90.2459 70.3785 86.391 60.0737L84.5178 60.7744ZM75.9504 99.2725H73.9504V138H75.9504H77.9504V99.2725H75.9504ZM75.9504 138V136H72.6643V138V140H75.9504V138ZM72.6643 138H74.6643V99.2549H72.6643H70.6643V138H72.6643ZM72.6643 99.2549L72.3692 97.2768C66.0807 98.2148 62.643 96.9189 60.7454 94.9316C58.7717 92.8646 57.9473 89.5309 58.0771 85.2982C58.3361 76.8532 62.3342 66.5535 64.5704 61.5969L62.7473 60.7744L60.9243 59.9519C58.6616 64.9672 54.3639 75.8848 54.079 85.1756C53.9369 89.8109 54.7785 94.4747 57.8524 97.694C61.0024 100.993 65.9937 102.272 72.9594 101.233L72.6643 99.2549ZM62.7473 60.7744H64.7473C64.7473 55.3993 63.3643 50.3924 61.8012 45.972C61.0215 43.7668 60.178 41.6578 59.4369 39.7433C58.6854 37.8021 58.0398 36.0627 57.5978 34.4845C56.6874 31.234 56.8329 29.3293 57.9243 28.0306C59.1443 26.5789 62.0673 25.195 68.6354 24.6043L68.4563 22.6123L68.2771 20.6203C61.6055 21.2204 57.195 22.6812 54.8621 25.4572C52.4005 28.3861 52.7738 32.0918 53.7461 35.5634C54.2454 37.3462 54.955 39.2457 55.7066 41.1874C56.4686 43.1558 57.2763 45.1737 58.03 47.3054C59.534 51.5589 60.7473 56.0662 60.7473 60.7744H62.7473ZM68.4563 22.6123L70.2221 21.6733C70.2273 21.683 70.1812 21.6017 70.1583 21.3508C70.1351 21.0973 70.14 20.7171 70.2151 20.169L68.2336 19.8975L66.2522 19.626C66.0537 21.0745 66.0983 22.4378 66.6905 23.5513L68.4563 22.6123ZM68.2336 19.8975L70.2133 19.6132C70.0988 18.8152 70.1548 18.4211 70.1986 18.2688C70.2232 18.183 70.212 18.2535 70.1349 18.302C70.1223 18.3099 70.221 18.247 70.5844 18.212C70.9462 18.1772 71.3781 18.184 71.9704 18.1995L72.0227 16.2002L72.075 14.2009C71.5277 14.1866 70.8483 14.1682 70.2012 14.2304C69.5556 14.2926 68.7477 14.449 68.005 14.9162C66.2429 16.0247 65.9478 18.0493 66.2539 20.1817L68.2336 19.8975ZM72.0227 16.2002L73.8861 15.4737C73.7053 15.0099 73.5188 14.0257 73.5188 12.7422L71.5188 12.7422L69.5188 12.7422C69.5188 14.2967 69.7308 15.8276 70.1593 16.9267L72.0227 16.2002ZM71.5188 12.7422L73.4585 12.2549C73.2245 11.3234 73.1343 10.6612 73.1168 10.2064C73.1081 9.98165 73.1179 9.82113 73.1317 9.71311C73.1386 9.65972 73.1462 9.62137 73.1522 9.59604C73.1582 9.57075 73.1624 9.55949 73.1623 9.55976C73.1551 9.579 73.0797 9.74325 72.8607 9.88387C72.66 10.0127 72.4641 10.041 72.3406 10.041L72.3401 8.04102L72.3396 6.04102C71.8757 6.04113 71.2787 6.14612 70.6998 6.51781C70.1025 6.90124 69.6718 7.47436 69.416 8.15794C68.9469 9.4116 69.0407 11.0861 69.5791 13.2294L71.5188 12.7422Z" fill="#EFE7D3" mask="url(#path-2-inside-1_77_154)"/>
</g>
<defs>
<filter id="filter0_dii_77_154" x="42.0005" y="3" width="61.9998" height="156" filterUnits="userSpaceOnUse" color-interpolation-filters="sRGB">
<feFlood flood-opacity="0" result="BackgroundImageFix"/>
<feColorMatrix in="SourceAlpha" type="matrix" values="0 0 0 0 0 0 0 0 0 0 0 0 0 0 0 0 0 0 127 0" result="hardAlpha"/>
<feOffset dy="8"/>
<feGaussianBlur stdDeviation="6.5"/>
<feComposite in2="hardAlpha" operator="out"/>
<feColorMatrix type="matrix" values="0 0 0 0 0 0 0 0 0 0 0 0 0 0 0 0 0 0 0.25 0"/>
<feBlend mode="normal" in2="BackgroundImageFix" result="effect1_dropShadow_77_154"/>
<feBlend mode="normal" in="SourceGraphic" in2="effect1_dropShadow_77_154" result="shape"/>
<feColorMatrix in="SourceAlpha" type="matrix" values="0 0 0 0 0 0 0 0 0 0 0 0 0 0 0 0 0 0 127 0" result="hardAlpha"/>
<feOffset dx="4" dy="5"/>
<feGaussianBlur stdDeviation="3"/>
<feComposite in2="hardAlpha" operator="arithmetic" k2="-1" k3="1"/>
<feColorMatrix type="matrix" values="0 0 0 0 1 0 0 0 0 1 0 0 0 0 1 0 0 0 0.4 0"/>
<feBlend mode="normal" in2="shape" result="effect2_innerShadow_77_154"/>
<feColorMatrix in="SourceAlpha" type="matrix" values="0 0 0 0 0 0 0 0 0 0 0 0 0 0 0 0 0 0 127 0" result="hardAlpha"/>
<feOffset dx="-1" dy="-3"/>
<feGaussianBlur stdDeviation="2"/>
<feComposite in2="hardAlpha" operator="arithmetic" k2="-1" k3="1"/>
<feColorMatrix type="matrix" values="0 0 0 0 1 0 0 0 0 1 0 0 0 0 1 0 0 0 0.4 0"/>
<feBlend mode="normal" in2="effect2_innerShadow_77_154" result="effect3_innerShadow_77_154"/>
</filter>
</defs>
</svg>
