<svg width="402" height="296" viewBox="0 0 402 296" fill="none" xmlns="http://www.w3.org/2000/svg">
<path d="M401.718 10.5756L401.718 -1.23203e-08L391.934 -4.3998e-07C391.934 0.140851 391.958 0.281704 391.958 0.422556C391.958 6.25617 387.225 10.9864 381.387 10.9864C375.55 10.9864 370.817 6.25617 370.817 0.422555C370.817 0.281703 370.829 0.14085 370.84 -1.36204e-06L361.937 -1.75119e-06C361.937 5.83361 357.204 10.5639 351.367 10.5639C345.53 10.5639 340.796 5.83361 340.796 -2.6753e-06L331.917 -3.06343e-06C331.917 5.83361 327.184 10.5639 321.346 10.5639C315.509 10.5639 310.776 5.83361 310.776 -3.98754e-06L301.896 -4.37567e-06C301.896 5.83361 297.163 10.5639 291.326 10.5639C285.489 10.5639 280.755 5.83361 280.755 -5.29978e-06L271.876 -5.6879e-06C271.876 5.83361 267.143 10.5639 261.305 10.5639C255.468 10.5639 250.735 5.8336 250.735 -6.61202e-06L241.855 -7.00014e-06C241.855 5.8336 237.122 10.5639 231.285 10.5639C225.447 10.5639 220.714 5.8336 220.714 -7.92425e-06L211.835 -8.31238e-06C211.835 5.8336 207.102 10.5639 201.264 10.5639C195.427 10.5639 190.694 5.8336 190.694 -9.23649e-06L181.814 -9.62462e-06C181.814 5.8336 177.081 10.5639 171.244 10.5639C165.406 10.5639 160.673 5.8336 160.673 -1.05487e-05L151.794 -1.09369e-05C151.794 5.8336 147.061 10.5639 141.223 10.5639C135.386 10.5639 130.653 5.8336 130.653 -1.1861e-05L121.773 -1.22491e-05C121.773 5.8336 117.04 10.5639 111.203 10.5639C105.365 10.5639 100.632 5.8336 100.632 -1.31732e-05L91.7528 -1.35613e-05C91.7528 5.8336 87.0195 10.5639 81.1822 10.5639C75.3449 10.5639 70.6116 5.8336 70.6116 -1.44854e-05L61.7323 -1.48736e-05C61.7323 5.8336 56.999 10.5639 51.1617 10.5639C45.3244 10.5639 40.5911 5.8336 40.5911 -1.57977e-05L31.7118 -1.61858e-05C31.7118 5.8336 26.9785 10.5639 21.1412 10.5639C15.3039 10.5639 10.5706 5.83359 10.5706 -1.71099e-05L0 -1.7572e-05L-4.62275e-07 10.5756C0.0704646 10.5756 0.14093 10.5756 0.211395 10.5756C6.04871 10.5756 10.782 15.3059 10.782 21.1395C10.782 26.9731 6.0487 31.7034 0.211394 31.7034C0.140929 31.7034 0.0704637 31.7034 -1.3858e-06 31.7034L-1.84756e-06 42.2673C0.0704632 42.2673 0.140928 42.2673 0.211393 42.2673C6.0487 42.2673 10.782 46.9975 10.782 52.8311C10.782 58.6648 6.0487 63.395 0.211392 63.395C0.140927 63.395 0.0704623 63.395 -2.77109e-06 63.395L-3.23285e-06 73.9589C0.0704619 73.9589 0.140927 73.9589 0.211392 73.9589C6.0487 73.9589 10.782 78.6892 10.782 84.5228C10.782 90.3564 6.0487 95.0867 0.211391 95.0867C0.140926 95.0867 0.0704609 95.0867 -4.15637e-06 95.0867L-4.61813e-06 105.651C0.0704605 105.651 0.140926 105.651 0.211391 105.651C6.0487 105.651 10.782 110.381 10.782 116.214C10.782 122.048 6.0487 126.778 0.21139 126.778C0.140925 126.778 0.0704595 126.778 -5.54166e-06 126.778L-6.00342e-06 137.342C0.0704591 137.342 0.140924 137.342 0.211389 137.342C6.0487 137.342 10.782 142.072 10.782 147.906C10.782 153.74 6.0487 158.47 0.211388 158.47C0.140923 158.47 0.0704582 158.47 -6.92694e-06 158.47L-7.38871e-06 169.034C0.0704577 169.034 0.140923 169.034 0.211388 169.034C6.0487 169.034 10.782 173.764 10.782 179.598C10.782 185.431 6.0487 190.162 0.211387 190.162C0.140922 190.162 0.0704568 190.162 -8.31223e-06 190.162L-8.77399e-06 200.726C0.0704563 200.726 0.140921 200.726 0.211386 200.726C6.0487 200.726 10.782 205.456 10.782 211.289C10.782 217.123 6.0487 221.853 0.211386 221.853C0.14092 221.853 0.0704554 221.853 -9.69752e-06 221.853L-1.01593e-05 232.417C0.0704549 232.417 0.14092 232.417 0.211385 232.417C6.0487 232.417 10.782 237.147 10.782 242.981C10.782 248.815 6.04869 253.545 0.211384 253.545C0.140919 253.545 0.070454 253.545 -1.10828e-05 253.545L-1.15446e-05 264.109C5.74334 264.226 10.3592 268.898 10.3592 274.661C10.3592 280.424 5.74333 285.096 -1.24671e-05 285.213L-1.29386e-05 296L10.5824 296C10.5824 295.93 10.5824 295.859 10.5824 295.789C10.5824 289.955 15.3156 285.225 21.1529 285.225C26.9903 285.225 31.7236 289.955 31.7236 295.789C31.7236 295.859 31.7236 295.93 31.7236 296L40.6263 296C40.6263 295.93 40.6263 295.859 40.6263 295.789C40.6263 289.955 45.3596 285.225 51.1969 285.225C57.0343 285.225 61.7675 289.955 61.7675 295.789C61.7675 295.859 61.7675 295.93 61.7675 296L70.6703 296C70.6703 295.93 70.6703 295.859 70.6703 295.789C70.6703 289.955 75.4036 285.225 81.241 285.225C87.0783 285.225 91.8115 289.955 91.8115 295.789C91.8115 295.859 91.8115 295.93 91.8115 296L100.714 296C100.714 295.93 100.714 295.859 100.714 295.789C100.714 289.955 105.448 285.225 111.285 285.225C117.122 285.225 121.856 289.955 121.856 295.789C121.856 295.859 121.856 295.93 121.856 296L130.758 296C130.758 295.93 130.758 295.859 130.758 295.789C130.758 289.955 135.492 285.225 141.329 285.225C147.166 285.225 151.9 289.955 151.9 295.789C151.9 295.859 151.9 295.93 151.9 296L160.802 296C160.802 295.93 160.802 295.859 160.802 295.789C160.802 289.955 165.536 285.225 171.373 285.225C177.21 285.225 181.944 289.955 181.944 295.789C181.944 295.859 181.944 295.93 181.944 296L190.846 296C190.846 295.93 190.846 295.859 190.846 295.789C190.846 289.955 195.58 285.225 201.417 285.225C207.254 285.225 211.988 289.955 211.988 295.789C211.988 295.859 211.988 295.93 211.988 296L220.89 296C220.89 295.93 220.89 295.859 220.89 295.789C220.89 289.955 225.624 285.225 231.461 285.225C237.298 285.225 242.032 289.955 242.032 295.789C242.032 295.859 242.032 295.93 242.032 296L250.934 296C250.934 295.93 250.934 295.859 250.934 295.789C250.934 289.955 255.668 285.225 261.505 285.225C267.342 285.225 272.076 289.955 272.076 295.789C272.076 295.859 272.076 295.93 272.076 296L280.978 296C280.978 295.93 280.978 295.859 280.978 295.789C280.978 289.955 285.712 285.225 291.549 285.225C297.386 285.225 302.12 289.955 302.12 295.789C302.12 295.859 302.12 295.93 302.12 296L311.022 296C311.022 295.93 311.022 295.859 311.022 295.789C311.022 289.955 315.756 285.225 321.593 285.225C327.43 285.225 332.164 289.955 332.164 295.789C332.164 295.859 332.164 295.93 332.164 296L341.066 296C341.066 295.93 341.066 295.859 341.066 295.789C341.066 289.955 345.8 285.225 351.637 285.225C357.474 285.225 362.208 289.955 362.208 295.789C362.208 295.859 362.208 295.93 362.208 296L371.11 296C371.228 290.26 375.902 285.647 381.669 285.647C387.436 285.647 392.111 290.26 392.228 296L402 296L402 285.213C401.93 285.213 401.859 285.213 401.789 285.213C395.951 285.213 391.218 280.483 391.218 274.649C391.218 268.816 395.951 264.085 401.789 264.085C401.859 264.085 401.93 264.085 402 264.085L402 253.521C396.257 253.404 391.641 248.733 391.641 242.969C391.641 237.206 396.257 232.535 402 232.417L402 221.853C396.257 221.736 391.641 217.064 391.641 211.301C391.641 205.538 396.257 200.866 402 200.749L402 190.185C396.257 190.068 391.641 185.396 391.641 179.633C391.641 173.87 396.257 169.198 402 169.081L402 158.517C396.257 158.4 391.641 153.728 391.641 147.965C391.641 142.202 396.257 137.53 402 137.413L402 126.849C396.257 126.731 391.641 122.06 391.641 116.297C391.641 110.533 396.257 105.862 402 105.744L402 95.1806C396.257 95.0632 391.641 90.3916 391.641 84.6284C391.641 78.8653 396.257 74.1937 402 74.0763L402 63.5124C396.257 63.395 391.641 58.7235 391.641 52.9603C391.641 47.1971 396.257 42.5255 402 42.4081L402 31.8442C396.257 31.7269 391.641 27.0553 391.641 21.2921C391.641 15.5289 396.257 10.8573 402 10.74L401.718 10.5756ZM380.577 274.661L21.1764 274.661L21.1765 21.1278L380.577 21.1278L380.577 274.661Z" fill="#EFE7D3"/>
<path d="M381.495 20.167L381.495 278.76L20.3729 278.76L20.3729 20.167L381.495 20.167Z" fill="#EFE7D3"/>
</svg>
