<svg width="108" height="108" viewBox="0 0 108 108" fill="none" xmlns="http://www.w3.org/2000/svg">
<path d="M41.9578 6.8207C48.4188 -0.273565 59.5812 -0.273565 66.0422 6.8207C69.308 10.4066 74.0012 12.3505 78.8455 12.124C88.4304 11.676 96.324 19.5696 95.876 29.1545C95.6495 33.9987 97.5934 38.692 101.179 41.9578C108.274 48.4188 108.274 59.5812 101.179 66.0422C97.5934 69.308 95.6495 74.0012 95.876 78.8455C96.324 88.4304 88.4304 96.324 78.8455 95.876C74.0012 95.6495 69.308 97.5934 66.0422 101.179C59.5812 108.274 48.4188 108.274 41.9578 101.179C38.692 97.5934 33.9987 95.6495 29.1545 95.876C19.5696 96.324 11.676 88.4304 12.124 78.8455C12.3505 74.0012 10.4066 69.308 6.8207 66.0422C-0.273565 59.5812 -0.273565 48.4188 6.8207 41.9578C10.4066 38.692 12.3505 33.9987 12.124 29.1545C11.676 19.5696 19.5696 11.676 29.1545 12.124C33.9987 12.3505 38.692 10.4066 41.9578 6.8207Z" stroke="#EFE7D3" stroke-width="3"/>
</svg>
